<svg width="1024" height="1024" viewBox="0 0 1024 1024" fill="none" xmlns="http://www.w3.org/2000/svg">
<path d="M780.8 128H243.2C212.647 128 183.345 140.137 161.741 161.741C140.137 183.345 128 212.647 128 243.2V780.8C128 811.353 140.137 840.655 161.741 862.259C183.345 883.863 212.647 896 243.2 896H780.8C787.116 895.912 793.412 895.27 799.616 894.08L811.136 891.392H815.744L829.952 886.016L834.944 883.328C838.784 881.024 843.008 879.104 846.848 876.416C851.976 872.644 856.85 868.539 861.44 864.128L864.128 860.672C867.898 856.852 871.364 852.743 874.496 848.384L877.952 843.392C880.634 839.117 882.947 834.621 884.864 829.952C885.918 828.11 886.817 826.183 887.552 824.192C889.472 819.584 890.624 814.592 892.16 809.6V803.84C894.337 796.337 895.626 788.604 896 780.8V243.2C896 212.647 883.863 183.345 862.259 161.741C840.655 140.137 811.353 128 780.8 128ZM243.2 819.2C233.016 819.2 223.248 815.154 216.047 807.953C208.846 800.751 204.8 790.984 204.8 780.8V615.296L331.136 488.576C334.706 484.977 338.953 482.12 343.632 480.171C348.312 478.221 353.331 477.217 358.4 477.217C363.469 477.217 368.488 478.221 373.168 480.171C377.847 482.12 382.094 484.977 385.664 488.576L715.904 819.2H243.2ZM819.2 780.8C819.164 785.534 818.253 790.221 816.512 794.624C815.634 796.496 814.607 798.294 813.44 800C812.413 801.626 811.257 803.167 809.984 804.608L604.544 599.168L638.336 565.376C641.906 561.777 646.153 558.92 650.832 556.971C655.512 555.021 660.531 554.017 665.6 554.017C670.669 554.017 675.688 555.021 680.368 556.971C685.047 558.92 689.294 561.777 692.864 565.376L819.2 692.096V780.8ZM819.2 583.424L747.008 512C725.032 491.148 695.894 479.524 665.6 479.524C635.306 479.524 606.167 491.148 584.192 512L550.4 545.792L439.808 435.2C417.832 414.348 388.694 402.724 358.4 402.724C328.106 402.724 298.967 414.348 276.992 435.2L204.8 506.624V243.2C204.8 233.016 208.846 223.248 216.047 216.047C223.248 208.846 233.016 204.8 243.2 204.8H780.8C790.984 204.8 800.751 208.846 807.953 216.047C815.154 223.248 819.2 233.016 819.2 243.2V583.424ZM569.6 281.6C558.208 281.6 547.071 284.978 537.599 291.307C528.127 297.637 520.744 306.632 516.385 317.157C512.025 327.682 510.884 339.264 513.107 350.437C515.329 361.61 520.815 371.874 528.871 379.929C536.926 387.985 547.189 393.471 558.363 395.693C569.536 397.916 581.118 396.775 591.643 392.415C602.168 388.056 611.163 380.673 617.493 371.201C623.822 361.729 627.2 350.592 627.2 339.2C627.2 323.924 621.131 309.273 610.329 298.471C599.527 287.669 584.876 281.6 569.6 281.6Z" fill="black"/>
</svg>
