<svg width="1024" height="1024" viewBox="0 0 1024 1024" fill="none" xmlns="http://www.w3.org/2000/svg">
<path d="M691.2 256H332.8C312.431 256 292.897 264.091 278.494 278.494C264.091 292.897 256 312.431 256 332.8V691.2C256 711.569 264.091 731.103 278.494 745.506C292.897 759.909 312.431 768 332.8 768H691.2C695.411 767.941 699.608 767.513 703.744 766.72L711.424 764.928H714.496L723.968 761.344L727.296 759.552C729.856 758.016 732.672 756.736 735.232 754.944C738.65 752.429 741.9 749.692 744.96 746.752L746.752 744.448C749.265 741.901 751.576 739.162 753.664 736.256L755.968 732.928C757.756 730.078 759.298 727.08 760.576 723.968C761.278 722.74 761.878 721.455 762.368 720.128C763.648 717.056 764.416 713.728 765.44 710.4V706.56C766.891 701.558 767.751 696.403 768 691.2V332.8C768 312.431 759.909 292.897 745.506 278.494C731.103 264.091 711.569 256 691.2 256ZM332.8 716.8C326.01 716.8 319.499 714.103 314.698 709.302C309.897 704.501 307.2 697.99 307.2 691.2V580.864L391.424 496.384C393.804 493.985 396.635 492.08 399.755 490.78C402.874 489.481 406.22 488.812 409.6 488.812C412.979 488.812 416.326 489.481 419.445 490.78C422.565 492.08 425.396 493.985 427.776 496.384L647.936 716.8H332.8ZM716.8 691.2C716.776 694.356 716.168 697.481 715.008 700.416C714.423 701.664 713.738 702.862 712.96 704C712.275 705.084 711.505 706.111 710.656 707.072L573.696 570.112L596.224 547.584C598.604 545.185 601.435 543.28 604.555 541.98C607.674 540.681 611.02 540.012 614.4 540.012C617.78 540.012 621.126 540.681 624.245 541.98C627.365 543.28 630.196 545.185 632.576 547.584L716.8 632.064V691.2ZM716.8 559.616L668.672 512C654.022 498.099 634.596 490.35 614.4 490.35C594.204 490.35 574.778 498.099 560.128 512L537.6 534.528L463.872 460.8C449.222 446.899 429.796 439.15 409.6 439.15C389.404 439.15 369.978 446.899 355.328 460.8L307.2 508.416V332.8C307.2 326.01 309.897 319.499 314.698 314.698C319.499 309.897 326.01 307.2 332.8 307.2H691.2C697.99 307.2 704.501 309.897 709.302 314.698C714.103 319.499 716.8 326.01 716.8 332.8V559.616ZM550.4 358.4C542.805 358.4 535.381 360.652 529.066 364.872C522.751 369.091 517.829 375.088 514.923 382.105C512.017 389.122 511.256 396.843 512.738 404.291C514.219 411.74 517.877 418.583 523.247 423.953C528.617 429.323 535.46 432.98 542.909 434.462C550.357 435.944 558.078 435.183 565.095 432.277C572.112 429.371 578.109 424.449 582.328 418.134C586.548 411.819 588.8 404.395 588.8 396.8C588.8 386.616 584.754 376.848 577.553 369.647C570.351 362.446 560.584 358.4 550.4 358.4Z" fill="white"/>
</svg>
