<svg width="1069" height="1013" viewBox="0 0 1069 1013" fill="none" xmlns="http://www.w3.org/2000/svg">
<path d="M778.5 943L804.5 767.5L888 672L1046 622.5L1067.5 637.5L929 747L950 774.5V798L939 814.5H919.5L888 798L795 958.5L778.5 943Z" fill="white" stroke="white"/>
<path d="M977 19.5L422 244L308.5 362L172.5 962.5L252 1011.5L485 537.5L603 395L1037.5 77L977 19.5Z" fill="white" stroke="white"/>
<path d="M190.5 31.5L904.5 666.5L806 780L54.5 199L190.5 31.5Z" fill="white"/>
<ellipse cx="110.5" cy="103.5" rx="110.5" ry="103.5" fill="white"/>
<ellipse cx="931" cy="790.5" rx="25" ry="24.5" fill="white"/>
<rect x="194.937" y="551.64" width="69.6744" height="93.5652" rx="32" transform="rotate(-56.0955 194.937 551.64)" fill="white"/>
<rect x="194.937" y="551.64" width="69.6744" height="93.5652" rx="32" transform="rotate(-56.0955 194.937 551.64)" fill="white"/>
<rect x="194.937" y="551.64" width="69.6744" height="93.5652" rx="32" transform="rotate(-56.0955 194.937 551.64)" fill="white"/>
<rect x="156" y="758.828" width="69.6744" height="93.5652" rx="32" transform="rotate(-56.0955 156 758.828)" fill="white"/>
<rect x="156" y="758.828" width="69.6744" height="93.5652" rx="32" transform="rotate(-56.0955 156 758.828)" fill="white"/>
<rect x="156" y="758.828" width="69.6744" height="93.5652" rx="32" transform="rotate(-56.0955 156 758.828)" fill="white"/>
<rect x="519" y="174.828" width="69.6744" height="93.5652" rx="32" transform="rotate(-56.0955 519 174.828)" fill="white"/>
<rect x="519" y="174.828" width="69.6744" height="93.5652" rx="32" transform="rotate(-56.0955 519 174.828)" fill="white"/>
<rect x="519" y="174.828" width="69.6744" height="93.5652" rx="32" transform="rotate(-56.0955 519 174.828)" fill="white"/>
<rect x="712" y="96.8275" width="69.6744" height="93.5652" rx="32" transform="rotate(-56.0955 712 96.8275)" fill="white"/>
<rect x="712" y="96.8275" width="69.6744" height="93.5652" rx="32" transform="rotate(-56.0955 712 96.8275)" fill="white"/>
<rect x="712" y="96.8275" width="69.6744" height="93.5652" rx="32" transform="rotate(-56.0955 712 96.8275)" fill="white"/>
</svg>
